PathFileType	4	(X/Y/Z)	C:/Users/beibeiliu/ov580/test_trc/User3\out3_training_dense_right.trc
DataRate	CameraRate	NumFrames	NumMarkers	Units	OrigDataRate	OrigDataStartFrame	OrigNumFrames
120	120	10	19	mm	120	313	500
Frame#	Time	ThumbCMC			ThumbMCP			ThumbIP			ThumbTip			IndexMCP			IndexPIP			IndexTip			MiddleMCP			MiddlePIP			MiddleTip			RingMCP			RingPIP			RingTip			PinkyMCP			PinkyPIP			PinkyTip			BackHand1			BackHand2			BackHand3	
		X0	Y0	Z0	X1	Y1	Z1	X2	Y2	Z2	X3	Y3	Z3	X4	Y4	Z4	X5	Y5	Z5	X6	Y6	Z6	X7	Y7	Z7	X8	Y8	Z8	X9	Y9	Z9	X10	Y10	Z10	X11	Y11	Z11	X12	Y12	Z12	X13	Y13	Z13	X14	Y14	Z14	X15	Y15	Z15	X16	Y16	Z16	X17	Y17	Z17	X18	Y18	Z18	
312	2.6	180.371	67.5655	67.9522	182.127	82.98	41.6159	181.214	92.6416	10.7296	173.926	88.4353	-13.4394	176.531	59.9114	-11.0616	145.025	65.6647	-11.3484	141.804	64.2378	19.8498	166.857	39.9666	-11.2578	135.149	50.6372	-4.68119	142.292	48.5718	33.5959	155.845	21.2839	-5.30632	131.201	32.1994	5.82289	143.668	36.8632	38.6206	154.888	4.39185	2.04186	132.068	18.3714	6.36736	136.301	22.4788	38.5699	193.655	4.6283	42.9881	191.956	8.50683	70.7697	202.658	40.7237	56.0188	
313	2.60833	177.498	66.4094	63.7788	172.243	86.2779	39.2122	165.895	91.6865	9.16102	155.318	86.164	-15.1136	177.078	53.9803	-10.3235	146.376	67.1579	-15.6878	140.534	65.8745	15.716	163.619	34.7402	-13.0535	133.779	46.663	-6.41295	140.785	47.94	32.4323	156.906	16.9165	-3.57609	128.3	29.0399	4.15	137.768	34.4702	36.822	151.935	2.78116	2.7262	129.379	19.0629	7.5686	131.349	21.4816	37.7322	191.585	8.36374	39.4608	189.989	3.57505	75.1445	199.24	38.1307	56.7116	
314	2.61667	172.203	70.805	66.7832	159.011	83.1687	40.1802	148.32	84.5518	6.87739	136.489	77.7058	-13.365	177.144	56.2225	-13.9707	148.92	65.0535	-23.0931	137.76	63.7278	8.72936	163.527	36.9137	-13.1525	130.995	47.5809	-6.02504	137.03	43.4099	29.4247	154.621	18.6797	-4.53982	128.071	30.0909	2.66521	136.784	36.3126	36.6274	154.136	3.97432	5.43055	128.521	16.4891	7.01313	131.544	25.4798	36.0083	190.011	6.34461	39.4019	189.871	9.54664	71.5334	197.331	42.183	56.8001	
315	2.625	165.753	67.654	66.7992	147.932	80.7497	39.6708	134.649	80.3131	10.2537	121.278	72.3785	-11.8512	175.904	56.1538	-11.9693	149.103	60.9372	-26.7973	132.31	64.5422	6.81524	162.87	38.7164	-12.2171	128.241	44.0282	-8.67982	134.089	47.3516	28.2256	150.616	18.8495	-6.29138	125.446	27.8554	2.14564	134.39	36.0594	36.6405	149.359	3.12278	1.79388	126.565	16.0307	7.4267	130.268	21.7709	39.5771	189.807	9.92664	38.8691	187.855	8.71912	72.811	196.106	42.4179	55.2154	
316	2.63333	162.907	68.5595	66.4103	143.492	76.3365	36.9517	128.114	79.2864	12.1048	115.327	66.5066	-10.8706	173.619	59.4666	-13.9167	145.119	65.5357	-25.6142	128.231	63.5699	1.94415	159.444	41.0434	-12.9232	128.444	45.4701	-12.41	129.892	43.885	28.5961	149.702	21.6065	-4.62866	121.55	27.1261	4.2237	132.383	31.2971	39.0737	146.9	3.83447	2.42412	123.956	13.4702	5.05111	126.005	21.4145	38.7582	187.045	9.67527	43.8864	187.57	7.61028	75.7241	193.547	44.8651	55.5696	
317	2.64167	160.374	67.5724	62.801	140.597	78.911	33.999	124.65	78.0494	5.8479	115.944	62.4867	-8.76781	173.561	58.0345	-13.1858	146.694	64.0165	-27.8591	126.317	66.6413	-2.12545	156.385	38.4974	-15.0934	125.675	43.3846	-9.95453	129.382	43.7362	29.1892	152.356	22.8618	-2.54649	119.798	28.0717	5.89017	131.795	34.0056	37.6287	146.643	1.95606	3.87805	121.928	14.9228	6.12849	126.396	24.4079	34.8991	185.69	7.41009	39.5447	185.697	5.86309	72.9035	190.487	42.8709	55.13	
318	2.65	161.122	67.7067	61.3867	140.764	77.487	37.9402	125.773	76.6386	7.24537	114.593	66.045	-9.27498	172.49	56.3424	-11.9721	142.768	62.1954	-25.3579	124.746	63.8112	3.07324	156.244	37.2069	-13.5445	126.911	46.8025	-11.0043	129.006	44.9932	31.0608	150.377	20.1184	-2.30108	120.03	31.0616	5.26799	130.932	36.4476	37.3948	145.873	1.58258	4.10728	119.634	11.6301	6.98786	124.898	23.6817	35.4038	184.97	12.1719	42.057	183.395	8.52972	72.1135	189.562	39.9586	55.5518	
319	2.65833	159.971	68.4299	66.5042	142.369	76.108	36.1326	128.904	80.2974	8.09889	116.133	73.5949	-11.4946	172.313	55.2187	-9.14031	144.663	62.4159	-24.6945	127.093	66.5063	7.236	158.769	39.2575	-11.0313	125.005	46.5858	-7.72518	128.16	47.2469	28.9073	148.584	23.1159	-5.19602	120.052	26.0225	4.17673	131.221	32.2815	37.8722	147.208	0.879208	6.84029	121.586	11.4992	6.19981	122.096	22.765	33.7023	184.856	11.066	41.4269	183.703	5.58828	75.0565	189.469	40.5672	57.7425	
320	2.66667	162.883	68.5508	62.1054	147.502	77.9972	37.7155	136.409	82.224	9.40319	126.205	78.5606	-13.152	170.663	54.7887	-10.7394	141.292	65.3596	-21.8445	128.525	64.0788	8.89489	156.363	39.0009	-13.6516	126.019	45.7816	-9.67913	130.769	45.7993	30.6609	148.119	17.9111	-4.44221	120.447	24.629	5.56931	130.747	31.8268	38.0243	149.318	2.59089	6.35107	123.222	12.1112	4.6867	122.006	22.4728	36.3341	184.916	11.7424	42.5054	182.306	7.00823	74.8934	190.399	42.3773	60.267	
321	2.675	164.784	68.4241	66.4676	157.152	79.6305	38.6362	150.738	86.5912	7.47971	142.718	81.0208	-16.7911	169.93	55.9388	-10.0317	137.477	61.8278	-17.6642	130.657	63.7788	12.4059	154.968	34.3967	-13.5049	125.848	41.8558	-7.86363	131.209	41.6626	31.3716	150.614	21.616	-3.18653	120.367	26.4385	5.3794	128.378	33.2235	34.5667	145.654	3.15912	3.20274	121.295	12.0561	5.88252	122.874	23.1631	36.0001	186.756	9.73018	42.602	185.198	7.17373	72.7437	189.938	38.187	56.8388	
